# xmcd CD database file
#
# Track frame offsets:
#	182
#	21945
#	35332
#	49877
#	64127
#	79780
#	97097
#	115000
#	127050
#	143207
#	160750
#	175795
#	194425
#	211110
#	226350
#	240615
#	257625
#	269525
#	288682
#	306957
#
# Disc length: 4382 seconds
#
# Revision: 0
# Processed by: cddbd v1.4PL0 Copyright (c) Steve Scherf et al.
# Submitted via: CDex 1.40Beta9
#
DISCID=26111c14
DTITLE=Chris Isaak - The Best Of
DYEAR=1900
DGENRE=Blues
TTITLE0=Wicked Game
TTITLE1=San Francisco Days
TTITLE2=Blue Hotel
TTITLE3=I Want Your Love
TTITLE4=Heart Shaped World
TTITLE5=Beautiful Homes
TTITLE6=Blue Spanish Sky
TTITLE7=Voodoo
TTITLE8=Two Hearts
TTITLE9=You Owe Me Some Kind Of Love
TTITLE10=Heart Full Of Soul
TTITLE11=Nothing's Changed
TTITLE12=Waiting
TTITLE13=Funerial In The Rain
TTITLE14=Lonely With A Broken Heart
TTITLE15=Dancin'
TTITLE16=Solitary Man
TTITLE17=Lie To Me
TTITLE18=Move Along
TTITLE19=Wicked Game (Instrumental)
EXTD=ID3G: 0
EXTT0=
EXTT1=
EXTT2=
EXTT3=
EXTT4=
EXTT5=
EXTT6=
EXTT7=
EXTT8=
EXTT9=
EXTT10=
EXTT11=
EXTT12=
EXTT13=
EXTT14=
EXTT15=
EXTT16=
EXTT17=
EXTT18=
EXTT19=
PLAYORDER=
